HIERARCHY
ROOT pelvis
{
  OFFSET 0 100 0
  CHANNELS 6 Xposition Yposition Zposition Zrotation Xrotation Yrotation
  JOINT pelvis_right_femur
  {
    OFFSET -10.78128 -3.44521 -0.5502486
    CHANNELS 3 Zrotation Xrotation Yrotation
    JOINT right_femur_tibia
    {
      OFFSET -0.8047443 -44.0398 -0.1307829
      CHANNELS 3 Zrotation Xrotation Yrotation
      JOINT right_tibia_foot
      {
        OFFSET 3.006224 -47.83518 -5
        CHANNELS 3 Zrotation Xrotation Yrotation
        End Site
        {
          OFFSET 0 -5 15
        }
      }
    }
  }
  JOINT pelvis_left_femur
  {
    OFFSET 10.78128 -3.44521 -0.5502486
    CHANNELS 3 Zrotation Xrotation Yrotation
    JOINT left_femur_tibia
    {
      OFFSET 0.8047443 -44.0398 -0.1307829
      CHANNELS 3 Zrotation Xrotation Yrotation
      JOINT left_tibia_foot
      {
        OFFSET -4.370144 -48.10324 -4.275266
        CHANNELS 3 Zrotation Xrotation Yrotation
        End Site
        {
          OFFSET 0 -5 15
        }
      }
    }
  }
  JOINT pelvis_spine1
  {
    OFFSET 0 6.468898 -3.129235
    CHANNELS 3 Zrotation Xrotation Yrotation
    JOINT spine1
    {
      OFFSET 0 23.15396 4.99043
      CHANNELS 3 Zrotation Xrotation Yrotation
      JOINT spine2
      {
        OFFSET 0 20.79997 -5.064912
        CHANNELS 3 Zrotation Xrotation Yrotation
        JOINT neck
        {
          OFFSET 0 14.38658 9.616178
          CHANNELS 3 Zrotation Xrotation Yrotation
          End Site
          {
            OFFSET 0 20 0
          }
        }
      }
      JOINT right_manubrium
      {
        OFFSET -5.722621 16.35077 3.967754
        CHANNELS 3 Zrotation Xrotation Yrotation
        JOINT right_clavicle
        {
          OFFSET -13.16364 1.694482 -4.693211
          CHANNELS 3 Zrotation Xrotation Yrotation
          JOINT right_humerus
          {
            OFFSET -28.5034 -0.3100689 -2.792744
            CHANNELS 3 Zrotation Xrotation Yrotation
            JOINT right_radius
            {
              OFFSET -25.15693 0.02248979 -1.271978
              CHANNELS 3 Zrotation Xrotation Yrotation
              End Site
              {
                OFFSET -15 0 0
              }
            }
          }
        }
      }
      JOINT left_manubrium
      {
        OFFSET 5.722621 16.35077 3.967754
        CHANNELS 3 Zrotation Xrotation Yrotation
        JOINT left_clavicle
        {
          OFFSET 13.16364 1.694482 -4.693211
          CHANNELS 3 Zrotation Xrotation Yrotation
          JOINT left_humerus
          {
            OFFSET 29.39168 -1.063119 -2.237045
            CHANNELS 3 Zrotation Xrotation Yrotation
            JOINT left_radius
            {
              OFFSET 24.59957 -0.9528479 0.9047498
              CHANNELS 3 Zrotation Xrotation Yrotation
              End Site
              {
                OFFSET 15 -0 -0
              }
            }
          }
        }
      }
    }
  }
}
MOTION
Frames: 13
Frame Time: 0.0416666666667
1257.895 105.4132 2760.577 5.686876 -3.987048 45.96619 0.3674539 -17.48492 2.557265 -0 36.92744 -0 -0.5877363 -2.07358 -8.892191 -5.396823 9.75847 -8.178126 -0 12.11785 -0 -2.52166 -18.19263 15.04178 -2.98581 0.4775888 2.597124 1.127311 10.39096 -8.082312 1.275303 22.27268 6.376751 1.516852 -17.73546 7.95738 2.067434 -16.55449 10.65349 89.94547 26.20484 -19.06822 -0 0 11.37211 -22.59835 12.63426 12.55395 4.723383 -20.80704 -4.86662 -83.00159 23.96651 9.276374 0 0 -22.26644 0.10178 6.916667 13.92531
1261.91 104.6476 2764.212 5.104898 -3.383227 46.67885 0.4664171 -21.2764 2.3278 -0 29.45005 -0 -0.6111321 -2.495958 -8.987587 -5.343605 12.49806 -8.365806 -0 11.57707 -0 -2.882301 -19.5519 14.59946 -2.962088 0.2876333 2.51748 1.483746 10.21372 -8.573662 1.321873 21.89368 6.489223 1.776991 -18.06641 7.963948 2.04979 -16.16553 10.53569 90.37623 26.24522 -20.77521 -0 0 10.60617 -22.11151 12.93682 11.96936 5.499636 -21.75943 -4.792707 -82.26814 23.84733 7.625618 0 0 -24.69251 0.4176351 7.088267 13.37685
1266.067 103.6233 2768.055 4.427443 -2.734194 47.25703 0.6803723 -24.55909 2.16088 -0 22.68194 -0 -0.4472437 -2.13234 -8.983036 -5.24184 14.79559 -8.412466 -0 12.23557 -0 -3.512075 -20.49801 14.02425 -2.912106 0.07125698 2.510399 1.75677 10.05019 -8.948827 1.383945 21.44794 6.636383 2.112757 -18.42024 7.958984 2.227716 -15.69652 10.4535 90.66881 26.57298 -22.34962 -0 0 9.819858 -21.8564 13.5016 11.4517 6.188094 -22.59347 -4.681164 -81.66668 23.64788 6.287144 0 0 -26.87494 0.7198099 7.230028 12.90019
1270.427 102.4997 2772.187 3.716878 -2.158709 47.72271 1.093042 -27.15797 2.115418 -0 17.10422 -0 -0.2584709 -1.205535 -8.953719 -5.051594 16.71504 -8.297543 -0 14.22992 -0 -4.40198 -20.77567 13.31275 -2.76653 -0.1509137 2.48548 1.953905 9.91783 -9.226443 1.445153 21.01009 6.77315 2.459455 -18.73121 7.913769 2.557265 -15.14126 10.41677 90.92279 27.12823 -23.77156 -0 0 8.939772 -21.77744 14.23015 11.02494 6.673176 -23.25674 -4.597773 -81.15608 23.42872 5.207391 0 0 -28.71507 0.9503189 7.333708 12.58177
1275.016 101.4533 2776.665 3.065709 -1.78868 48.07173 1.780129 -28.72352 2.272015 -0 13.13004 -0 -0.1973733 -0.09529952 -8.963031 -4.736727 18.19043 -8.045621 -0 17.76967 -0 -5.499209 -20.12955 12.5382 -2.456793 -0.3621705 2.400338 2.077879 9.8213 -9.394522 1.505208 20.67548 6.832405 2.733465 -18.94942 7.810424 2.952472 -14.53397 10.42849 91.20574 27.77211 -24.95009 -0 0 7.960934 -21.76894 14.97778 10.68608 6.837146 -23.65269 -4.59131 -80.77366 23.30311 4.44625 0 0 -30.03297 1.019344 7.43006 12.56002
1279.811 100.6711 2781.503 2.595193 -1.748378 48.26635 2.76157 -28.77539 2.682225 -0 11.07057 -0 -0.3889466 0.6786986 -9.046767 -4.285423 18.99188 -7.724586 -0 23.07824 -0 -6.69207 -18.39042 11.85065 -1.943653 -0.5393203 2.275256 2.131837 9.747087 -9.411251 1.577814 20.55898 6.734098 2.838585 -19.04819 7.648506 3.291471 -13.94854 10.48631 91.52842 28.30554 -25.71728 -0 0 6.950247 -21.66895 15.55334 10.39927 6.587164 -23.65693 -4.665477 -80.63433 23.42593 4.163812 0 0 -30.57464 0.829259 7.587333 12.98419
1284.734 100.3307 2786.645 2.430987 -2.097721 48.24388 3.92045 -26.8581 3.294739 -0 10.95608 -0 -0.9116503 0.57963 -9.18485 -3.74531 18.71589 -7.43018 -0 30.24359 -0 -7.80983 -15.62595 11.44539 -1.27029 -0.64614 2.211899 2.127895 9.671872 -9.221513 1.684561 20.76405 6.41424 2.70677 -19.03534 7.443229 3.456078 -13.49242 10.5867 91.81486 28.54425 -25.86968 -0 0 6.047456 -21.28983 15.74864 10.10158 5.916049 -23.18499 -4.749868 -80.91089 23.92964 4.56634 0 0 -30.09003 0.3391321 7.883169 13.90594
1289.652 100.5574 2791.943 2.647914 -2.758142 47.95063 4.973355 -22.83267 3.928526 -0 12.32418 -0 -1.770032 -0.6651478 -9.259268 -3.247362 16.85307 -7.249262 -0 38.94949 -0 -8.653896 -12.28785 11.48985 -0.6100434 -0.6303244 2.384157 2.088413 9.592322 -8.788775 1.839155 21.31511 5.882151 2.376343 -18.95282 7.212274 3.41925 -13.28527 10.73298 91.8801 28.46513 -25.25985 -0 0 5.458244 -20.52544 15.42827 9.742825 4.969241 -22.30046 -4.711912 -81.77602 24.79656 5.804941 0 0 -28.48181 -0.3415351 8.351336 15.12249
1294.414 101.3567 2797.175 3.218233 -3.504576 47.3904 5.597151 -17.15928 4.374909 -0 14.2203 -0 -2.834365 -2.780079 -9.04373 -2.951367 13.00781 -7.211104 -0 48.13405 -0 -9.073627 -9.173738 12.04724 -0.2213533 -0.4303494 2.955399 2.021753 9.560596 -8.121359 2.024358 22.08792 5.278977 2.043148 -18.83522 6.968209 3.315745 -13.42472 10.94147 91.4435 28.30136 -23.86821 -0 0 5.440176 -19.52904 14.67426 9.365398 4.044725 -21.26344 -4.456302 -83.2834 25.74136 7.851251 0 0 -25.95993 -0.9304922 8.925038 16.13253
1298.918 102.5563 2802.126 4.018097 -4.101977 46.64464 5.654841 -10.84669 4.571039 -0 15.58743 -0 -3.750114 -5.038809 -8.318538 -2.883259 7.239093 -7.244436 -0 55.87336 -0 -9.071717 -7.048818 13.06316 -0.2525718 -0.01015262 3.94124 1.879379 9.673503 -7.264902 2.186136 22.81571 4.8541 1.960097 -18.64542 6.7463 3.356431 -13.96292 11.23142 90.24178 28.36319 -21.76954 -0 0 6.272289 -18.80529 13.87551 9.15938 3.463963 -20.38457 -4.049332 -85.22998 26.27174 10.43652 0 0 -23.08208 -1.153271 9.399573 16.42987
1303.159 103.8247 2806.684 4.868675 -4.476019 45.83331 5.304368 -4.93126 4.655937 -0 15.81348 -0 -4.010552 -6.880108 -7.097993 -2.814529 0.222457 -7.150931 -0 59.96649 -0 -8.822592 -6.144683 14.40455 -0.562807 0.5858519 5.153441 1.569363 9.974993 -6.284247 2.268674 23.22381 4.790211 2.189028 -18.30861 6.623271 3.577906 -14.91186 11.58901 88.271 28.64113 -19.07483 -0 0 8.154781 -18.92874 13.50698 9.377284 3.365487 -19.76545 -3.683138 -87.18301 26.03201 13.16998 0 0 -20.5658 -1.021598 9.466452 16.00133
1307.221 104.7986 2810.886 5.545484 -4.687941 45.04726 4.872825 0.09552618 4.783826 -0 14.93937 -0 -3.39339 -8.433217 -5.696421 -2.391618 -7.06022 -6.66276 -0 59.1133 -0 -8.496119 -6.099184 15.87767 -0.8400878 1.22059 6.308262 1.073657 10.34425 -5.28581 2.253809 23.22694 5.009693 2.495785 -17.87538 6.635179 3.721995 -16.23852 11.93251 85.93355 28.73755 -15.98536 -0 0 11.00947 -19.9626 13.60027 10.11784 3.61059 -19.24694 -3.465958 -88.79003 25.18872 15.79348 0 0 -18.85748 -0.8368302 8.937049 15.3974
1311.221 105.2264 2814.857 5.816157 -4.777047 44.31104 4.614282 4.354355 4.873496 -0 13.42545 -0 -2.313886 -10.26324 -4.448726 -1.419913 -13.79992 -5.648355 -0 53.61227 -0 -8.106849 -6.406382 17.2541 -0.9001062 1.728906 7.17552 0.5208879 10.53127 -4.421656 2.15517 22.99637 5.243532 2.589458 -17.55904 6.704761 3.47133 -17.8111 12.13628 83.78924 28.35765 -12.8033 -0 0 14.36987 -21.34072 13.64495 11.20898 3.923186 -18.628 -3.322249 -90.04386 24.34467 18.27627 0 0 -17.77819 -0.8708928 8.036135 15.18096
